<?xml version="1.0" encoding="iso-8859-1"?>
<!-- Generator: Adobe Illustrator 19.0.0, SVG Export Plug-In . SVG Version: 6.00 Build 0)  -->
<svg version="1.1" id="Layer_1" xmlns="http://www.w3.org/2000/svg" xmlns:xlink="http://www.w3.org/1999/xlink" x="0px" y="0px"
	 viewBox="0 0 976.268 976.268" style="enable-background:new 0 0 976.268 976.268;" xml:space="preserve">
<g>
	<g>
		<path d="M0,0v976.268h976.268V0H0z M42.109,42.109h892.052v120.496H42.109V42.109z M42.109,934.161V204.712h892.052v729.449
			H42.109z"/>
	</g>
</g>
<g>
	<g>
		<rect x="81.946" y="81.301" width="40.813" height="42.109"/>
	</g>
</g>
<g>
	<g>
		<rect x="163.254" y="81.301" width="40.488" height="42.109"/>
	</g>
</g>
<g>
	<g>
		<rect x="244.546" y="81.301" width="40.488" height="42.109"/>
	</g>
</g>
<g>
	<g>
		<path d="M893.671,571.706l-64.134-13.28l34.335-37.572V263.986H559.395v256.862l34.335,37.572l-64.459,13.604l82.597,91.343
			l-13.28,122.439L711.634,735.6l112.721,50.206l-13.28-122.764L893.671,571.706z M601.502,306.097h0.002h220.259v198.559
			l-40.166,43.728l-8.745-1.943l-61.219-107.216l-61.545,107.216l-8.745,1.943l-39.84-43.728V306.097z M711.634,689.606
			l-63.162,28.181l7.45-68.669l-46.318-51.177l67.696-13.929l34.335-59.922l34.011,59.922l67.696,14.252l-46.318,51.177l7.45,68.347
			L711.634,689.606z"/>
	</g>
</g>
<g>
	<g>
		<path d="M101.707,263.986v265.609h407.482V263.986H101.707z M467.079,487.486H143.816v-181.39h323.263V487.486z"/>
	</g>
</g>
<g>
</g>
<g>
</g>
<g>
</g>
<g>
</g>
<g>
</g>
<g>
</g>
<g>
</g>
<g>
</g>
<g>
</g>
<g>
</g>
<g>
</g>
<g>
</g>
<g>
</g>
<g>
</g>
<g>
</g>
</svg>
